<?xml version="1.0" encoding="UTF-8"?>
<!DOCTYPE svg PUBLIC "-//W3C//DTD SVG 1.1//EN" "http://www.w3.org/Graphics/SVG/1.1/DTD/svg11.dtd">
<svg xmlns="http://www.w3.org/2000/svg" version="1.1" width="600px" height="600px" style="shape-rendering:geometricPrecision; text-rendering:geometricPrecision; image-rendering:optimizeQuality; fill-rule:evenodd; clip-rule:evenodd" xmlns:xlink="http://www.w3.org/1999/xlink">
<g><path style="opacity:1" fill="#f5f5f5" d="M -0.5,-0.5 C 199.5,-0.5 399.5,-0.5 599.5,-0.5C 599.5,199.5 599.5,399.5 599.5,599.5C 399.5,599.5 199.5,599.5 -0.5,599.5C -0.5,399.5 -0.5,199.5 -0.5,-0.5 Z"/></g>
<g><path style="opacity:1" fill="#f9f4f0" d="M 246.5,159.5 C 243.037,160.073 240.37,161.906 238.5,165C 233.544,164.558 231.211,166.724 231.5,171.5C 232.833,171.5 234.167,171.5 235.5,171.5C 235.5,170.167 235.5,168.833 235.5,167.5C 239.026,167.939 242.693,168.106 246.5,168C 247.435,170.381 247.768,172.881 247.5,175.5C 250.167,175.5 252.833,175.5 255.5,175.5C 255.33,174.178 255.663,173.011 256.5,172C 258.5,171.333 260.5,171.333 262.5,172C 264.161,175.15 263.161,176.65 259.5,176.5C 259.666,181.179 259.499,185.845 259,190.5C 257.989,191.337 256.822,191.67 255.5,191.5C 255.5,194.167 255.5,196.833 255.5,199.5C 258.488,199.155 259.821,200.488 259.5,203.5C 257.536,207.213 256.536,211.213 256.5,215.5C 257.5,215.5 258.5,215.5 259.5,215.5C 259.333,236.836 259.5,258.169 260,279.5C 261.5,280.333 262.667,281.5 263.5,283C 260.854,283.497 258.187,283.664 255.5,283.5C 255.5,284.5 255.5,285.5 255.5,286.5C 260.71,286.608 265.71,287.275 270.5,288.5C 268.473,288.338 266.473,288.505 264.5,289C 263.748,289.671 263.414,290.504 263.5,291.5C 256.346,291.325 249.346,291.325 242.5,291.5C 239.935,290.921 237.935,289.588 236.5,287.5C 238.833,287.5 241.167,287.5 243.5,287.5C 245.219,279.632 245.886,271.632 245.5,263.5C 243.5,263.5 241.5,263.5 239.5,263.5C 239.813,266.247 239.48,268.914 238.5,271.5C 237.335,263.855 237.169,256.188 238,248.5C 245.343,247.147 249.176,242.647 249.5,235C 249.333,233.833 249.167,232.667 249,231.5C 247.374,231.854 245.541,231.854 243.5,231.5C 243.153,227.904 243.82,224.571 245.5,221.5C 244.833,220.167 244.167,218.833 243.5,217.5C 243.976,214.26 243.976,210.927 243.5,207.5C 244.822,207.67 245.989,207.337 247,206.5C 247.5,200.175 247.666,193.842 247.5,187.5C 244.833,187.5 242.167,187.5 239.5,187.5C 239.5,186.167 239.5,184.833 239.5,183.5C 234.167,183.5 228.833,183.5 223.5,183.5C 223.5,185.833 223.5,188.167 223.5,190.5C 218.5,190.5 213.5,190.5 208.5,190.5C 208.768,188.901 208.434,187.568 207.5,186.5C 207.5,185.5 207.5,184.5 207.5,183.5C 209.861,183.326 212.194,182.993 214.5,182.5C 214.472,180.418 215.139,178.584 216.5,177C 218.764,176.764 220.931,176.264 223,175.5C 223.497,172.854 223.664,170.187 223.5,167.5C 224.873,167.657 226.207,167.49 227.5,167C 233.106,162.651 239.44,160.151 246.5,159.5 Z"/></g>
<g><path style="opacity:1" fill="#f6eee4" d="M 280.5,157.5 C 285.474,158.326 290.474,158.993 295.5,159.5C 295.5,176.833 295.5,194.167 295.5,211.5C 296.833,211.5 298.167,211.5 299.5,211.5C 299.5,212.833 299.5,214.167 299.5,215.5C 298.5,215.5 297.5,215.5 296.5,215.5C 296.5,218.167 296.5,220.833 296.5,223.5C 297.5,223.5 298.5,223.5 299.5,223.5C 299.5,226.167 299.5,228.833 299.5,231.5C 298.5,231.5 297.5,231.5 296.5,231.5C 296.002,234.681 296.835,237.347 299,239.5C 299.667,247.5 299.667,255.5 299,263.5C 298,264.5 297,265.5 296,266.5C 295.501,272.157 295.334,277.824 295.5,283.5C 292.833,283.5 290.167,283.5 287.5,283.5C 287.5,284.5 287.5,285.5 287.5,286.5C 291.514,286.334 295.514,286.501 299.5,287C 300.737,287.232 301.737,287.732 302.5,288.5C 296.204,289.413 289.87,289.413 283.5,288.5C 279.79,286.864 275.79,286.198 271.5,286.5C 271.5,284.833 271.5,283.167 271.5,281.5C 269.143,281.663 266.81,281.497 264.5,281C 268.17,280.452 271.837,279.952 275.5,279.5C 275.5,271.5 275.5,263.5 275.5,255.5C 274.167,255.5 272.833,255.5 271.5,255.5C 271.5,247.5 271.5,239.5 271.5,231.5C 274.167,231.5 276.833,231.5 279.5,231.5C 279.833,228.833 280.167,226.167 280.5,223.5C 278.833,223.5 277.167,223.5 275.5,223.5C 275.5,218.167 275.5,212.833 275.5,207.5C 274.167,207.5 272.833,207.5 271.5,207.5C 271.5,206.167 271.5,204.833 271.5,203.5C 272.833,203.5 274.167,203.5 275.5,203.5C 275.5,196.833 275.5,190.167 275.5,183.5C 276.833,183.5 278.167,183.5 279.5,183.5C 279.5,179.5 279.5,175.5 279.5,171.5C 280.833,171.5 282.167,171.5 283.5,171.5C 283.5,168.167 283.5,164.833 283.5,161.5C 282.167,161.5 280.833,161.5 279.5,161.5C 279.433,160.041 279.766,158.708 280.5,157.5 Z"/></g>
<g><path style="opacity:1" fill="#fbf8f6" d="M 236.5,287.5 C 235.5,287.5 234.5,287.5 233.5,287.5C 233.896,271.432 233.23,255.432 231.5,239.5C 234.167,239.5 236.833,239.5 239.5,239.5C 239.509,231.432 240.176,223.432 241.5,215.5C 238.167,215.5 234.833,215.5 231.5,215.5C 231.5,212.833 231.5,210.167 231.5,207.5C 228.833,207.5 226.167,207.5 223.5,207.5C 223.5,208.833 223.5,210.167 223.5,211.5C 222.167,211.5 220.833,211.5 219.5,211.5C 219.5,212.833 219.5,214.167 219.5,215.5C 220.833,215.5 222.167,215.5 223.5,215.5C 223.5,218.167 223.5,220.833 223.5,223.5C 220.833,223.5 218.167,223.5 215.5,223.5C 215.5,234.167 215.5,244.833 215.5,255.5C 212.833,255.5 210.167,255.5 207.5,255.5C 207.5,260.833 207.5,266.167 207.5,271.5C 202.167,271.5 196.833,271.5 191.5,271.5C 191.81,256.297 191.476,241.131 190.5,226C 191.239,221.873 191.739,217.706 192,213.5C 193.238,209.986 195.571,207.652 199,206.5C 198.634,201.021 200.134,196.188 203.5,192C 204.448,191.517 205.448,191.351 206.5,191.5C 206.366,189.708 206.699,188.042 207.5,186.5C 208.434,187.568 208.768,188.901 208.5,190.5C 213.5,190.5 218.5,190.5 223.5,190.5C 223.5,188.167 223.5,185.833 223.5,183.5C 228.833,183.5 234.167,183.5 239.5,183.5C 239.5,184.833 239.5,186.167 239.5,187.5C 242.167,187.5 244.833,187.5 247.5,187.5C 247.666,193.842 247.5,200.175 247,206.5C 245.989,207.337 244.822,207.67 243.5,207.5C 243.976,210.927 243.976,214.26 243.5,217.5C 244.167,218.833 244.833,220.167 245.5,221.5C 243.82,224.571 243.153,227.904 243.5,231.5C 245.541,231.854 247.374,231.854 249,231.5C 249.167,232.667 249.333,233.833 249.5,235C 249.176,242.647 245.343,247.147 238,248.5C 237.169,256.188 237.335,263.855 238.5,271.5C 239.48,268.914 239.813,266.247 239.5,263.5C 241.5,263.5 243.5,263.5 245.5,263.5C 245.886,271.632 245.219,279.632 243.5,287.5C 241.167,287.5 238.833,287.5 236.5,287.5 Z"/></g>
<g><path style="opacity:1" fill="#f4e8d7" d="M 335.5,199.5 C 335.5,202.167 335.5,204.833 335.5,207.5C 338.167,207.5 340.833,207.5 343.5,207.5C 343.5,202.167 343.5,196.833 343.5,191.5C 346.167,191.5 348.833,191.5 351.5,191.5C 351.5,194.167 351.5,196.833 351.5,199.5C 356.833,199.5 362.167,199.5 367.5,199.5C 367.5,202.167 367.5,204.833 367.5,207.5C 370.119,207.232 372.619,207.565 375,208.5C 375.5,218.828 375.666,229.161 375.5,239.5C 367.833,239.5 360.167,239.5 352.5,239.5C 351.597,231.542 351.264,223.542 351.5,215.5C 348.833,215.5 346.167,215.5 343.5,215.5C 343.5,216.833 343.5,218.167 343.5,219.5C 344.833,219.5 346.167,219.5 347.5,219.5C 346.987,224.085 347.654,228.418 349.5,232.5C 348.833,235.833 346.833,237.833 343.5,238.5C 344.689,239.429 346.022,239.762 347.5,239.5C 347.5,244.833 347.5,250.167 347.5,255.5C 348.833,255.5 350.167,255.5 351.5,255.5C 351.5,256.5 351.5,257.5 351.5,258.5C 346.357,256.58 341.023,255.58 335.5,255.5C 335.5,258.167 335.5,260.833 335.5,263.5C 332.833,263.5 330.167,263.5 327.5,263.5C 327.5,260.833 327.5,258.167 327.5,255.5C 322.167,255.5 316.833,255.5 311.5,255.5C 311.663,253.143 311.497,250.81 311,248.5C 307.667,245.167 307.667,241.833 311,238.5C 311.499,233.511 311.666,228.511 311.5,223.5C 308.833,223.5 306.167,223.5 303.5,223.5C 303.5,220.833 303.5,218.167 303.5,215.5C 306.167,215.5 308.833,215.5 311.5,215.5C 311.5,210.167 311.5,204.833 311.5,199.5C 314.167,199.5 316.833,199.5 319.5,199.5C 319.5,196.833 319.5,194.167 319.5,191.5C 322.167,191.5 324.833,191.5 327.5,191.5C 327.5,194.167 327.5,196.833 327.5,199.5C 330.167,199.5 332.833,199.5 335.5,199.5 Z"/></g>
<g><path style="opacity:1" fill="#f0e6d5" d="M 366.5,173.5 C 370.795,176.958 374.962,180.625 379,184.5C 384.115,193.901 389.115,203.235 394,212.5C 402.16,237.795 410.326,263.128 418.5,288.5C 398.565,290.553 378.565,291.553 358.5,291.5C 356.393,290.532 354.059,290.198 351.5,290.5C 351.5,289.5 351.5,288.5 351.5,287.5C 345.742,287.985 340.075,287.985 334.5,287.5C 329.644,286.881 324.644,286.881 319.5,287.5C 319.5,285.5 319.5,283.5 319.5,281.5C 324.833,282.167 330.167,282.833 335.5,283.5C 335.5,282.167 335.5,280.833 335.5,279.5C 336.833,279.5 338.167,279.5 339.5,279.5C 339.5,276.833 339.5,274.167 339.5,271.5C 338.167,271.5 336.833,271.5 335.5,271.5C 335.5,268.833 335.5,266.167 335.5,263.5C 335.5,260.833 335.5,258.167 335.5,255.5C 341.023,255.58 346.357,256.58 351.5,258.5C 351.5,257.5 351.5,256.5 351.5,255.5C 350.167,255.5 348.833,255.5 347.5,255.5C 347.5,250.167 347.5,244.833 347.5,239.5C 346.022,239.762 344.689,239.429 343.5,238.5C 346.833,237.833 348.833,235.833 349.5,232.5C 347.654,228.418 346.987,224.085 347.5,219.5C 346.167,219.5 344.833,219.5 343.5,219.5C 343.5,218.167 343.5,216.833 343.5,215.5C 346.167,215.5 348.833,215.5 351.5,215.5C 351.264,223.542 351.597,231.542 352.5,239.5C 360.167,239.5 367.833,239.5 375.5,239.5C 375.666,229.161 375.5,218.828 375,208.5C 372.619,207.565 370.119,207.232 367.5,207.5C 367.5,204.833 367.5,202.167 367.5,199.5C 362.167,199.5 356.833,199.5 351.5,199.5C 351.5,196.833 351.5,194.167 351.5,191.5C 348.833,191.5 346.167,191.5 343.5,191.5C 343.5,196.833 343.5,202.167 343.5,207.5C 340.833,207.5 338.167,207.5 335.5,207.5C 335.5,204.833 335.5,202.167 335.5,199.5C 335.5,196.833 335.5,194.167 335.5,191.5C 334.167,191.5 332.833,191.5 331.5,191.5C 331.5,188.833 331.5,186.167 331.5,183.5C 332.833,183.5 334.167,183.5 335.5,183.5C 335.232,180.881 335.565,178.381 336.5,176C 340.152,175.501 343.818,175.335 347.5,175.5C 347.5,174.167 347.5,172.833 347.5,171.5C 345.5,171.5 343.5,171.5 341.5,171.5C 341.5,170.167 341.5,168.833 341.5,167.5C 339.25,167.819 337.25,167.319 335.5,166C 340.631,164.282 345.631,164.449 350.5,166.5C 353.912,165.904 355.579,167.571 355.5,171.5C 359.367,171.242 363.034,171.908 366.5,173.5 Z"/></g>
<g><path style="opacity:1" fill="#fdfbfc" d="M 233.5,287.5 C 231.824,288.183 231.157,289.517 231.5,291.5C 220.833,291.5 210.167,291.5 199.5,291.5C 199.5,290.167 199.5,288.833 199.5,287.5C 195.5,287.5 191.5,287.5 187.5,287.5C 187.5,282.167 187.5,276.833 187.5,271.5C 188.833,271.5 190.167,271.5 191.5,271.5C 196.833,271.5 202.167,271.5 207.5,271.5C 207.5,266.167 207.5,260.833 207.5,255.5C 210.167,255.5 212.833,255.5 215.5,255.5C 215.5,244.833 215.5,234.167 215.5,223.5C 218.167,223.5 220.833,223.5 223.5,223.5C 223.5,220.833 223.5,218.167 223.5,215.5C 222.167,215.5 220.833,215.5 219.5,215.5C 219.5,214.167 219.5,212.833 219.5,211.5C 220.833,211.5 222.167,211.5 223.5,211.5C 223.5,210.167 223.5,208.833 223.5,207.5C 226.167,207.5 228.833,207.5 231.5,207.5C 231.5,210.167 231.5,212.833 231.5,215.5C 234.833,215.5 238.167,215.5 241.5,215.5C 240.176,223.432 239.509,231.432 239.5,239.5C 236.833,239.5 234.167,239.5 231.5,239.5C 233.23,255.432 233.896,271.432 233.5,287.5 Z"/></g>
<g><path style="opacity:1" fill="#f8f1e9" d="M 319.5,155.5 C 312.937,156.191 306.27,155.858 299.5,154.5C 292.754,154.658 286.42,155.658 280.5,157.5C 279.766,158.708 279.433,160.041 279.5,161.5C 280.833,161.5 282.167,161.5 283.5,161.5C 283.5,164.833 283.5,168.167 283.5,171.5C 282.167,171.5 280.833,171.5 279.5,171.5C 279.5,175.5 279.5,179.5 279.5,183.5C 278.167,183.5 276.833,183.5 275.5,183.5C 275.5,190.167 275.5,196.833 275.5,203.5C 274.167,203.5 272.833,203.5 271.5,203.5C 271.5,204.833 271.5,206.167 271.5,207.5C 272.833,207.5 274.167,207.5 275.5,207.5C 275.5,212.833 275.5,218.167 275.5,223.5C 277.167,223.5 278.833,223.5 280.5,223.5C 280.167,226.167 279.833,228.833 279.5,231.5C 276.833,231.5 274.167,231.5 271.5,231.5C 271.5,239.5 271.5,247.5 271.5,255.5C 272.833,255.5 274.167,255.5 275.5,255.5C 275.5,263.5 275.5,271.5 275.5,279.5C 271.837,279.952 268.17,280.452 264.5,281C 266.81,281.497 269.143,281.663 271.5,281.5C 271.5,283.167 271.5,284.833 271.5,286.5C 275.79,286.198 279.79,286.864 283.5,288.5C 279.167,288.5 274.833,288.5 270.5,288.5C 265.71,287.275 260.71,286.608 255.5,286.5C 255.5,285.5 255.5,284.5 255.5,283.5C 258.187,283.664 260.854,283.497 263.5,283C 262.667,281.5 261.5,280.333 260,279.5C 259.5,258.169 259.333,236.836 259.5,215.5C 258.5,215.5 257.5,215.5 256.5,215.5C 256.536,211.213 257.536,207.213 259.5,203.5C 259.821,200.488 258.488,199.155 255.5,199.5C 255.5,196.833 255.5,194.167 255.5,191.5C 256.822,191.67 257.989,191.337 259,190.5C 259.499,185.845 259.666,181.179 259.5,176.5C 263.161,176.65 264.161,175.15 262.5,172C 260.5,171.333 258.5,171.333 256.5,172C 255.663,173.011 255.33,174.178 255.5,175.5C 252.833,175.5 250.167,175.5 247.5,175.5C 247.768,172.881 247.435,170.381 246.5,168C 242.693,168.106 239.026,167.939 235.5,167.5C 235.5,168.833 235.5,170.167 235.5,171.5C 234.167,171.5 232.833,171.5 231.5,171.5C 231.211,166.724 233.544,164.558 238.5,165C 240.37,161.906 243.037,160.073 246.5,159.5C 247.882,158.199 249.548,157.366 251.5,157C 274.411,153.191 297.077,152.691 319.5,155.5 Z"/></g>
<g><path style="opacity:1" fill="#f4eadc" d="M 319.5,155.5 C 327.686,156.047 335.686,157.547 343.5,160C 352.358,162.739 360.025,167.239 366.5,173.5C 363.034,171.908 359.367,171.242 355.5,171.5C 355.579,167.571 353.912,165.904 350.5,166.5C 345.631,164.449 340.631,164.282 335.5,166C 337.25,167.319 339.25,167.819 341.5,167.5C 341.5,168.833 341.5,170.167 341.5,171.5C 343.5,171.5 345.5,171.5 347.5,171.5C 347.5,172.833 347.5,174.167 347.5,175.5C 343.818,175.335 340.152,175.501 336.5,176C 335.565,178.381 335.232,180.881 335.5,183.5C 334.167,183.5 332.833,183.5 331.5,183.5C 331.5,186.167 331.5,188.833 331.5,191.5C 332.833,191.5 334.167,191.5 335.5,191.5C 335.5,194.167 335.5,196.833 335.5,199.5C 332.833,199.5 330.167,199.5 327.5,199.5C 327.5,196.833 327.5,194.167 327.5,191.5C 324.833,191.5 322.167,191.5 319.5,191.5C 319.5,194.167 319.5,196.833 319.5,199.5C 316.833,199.5 314.167,199.5 311.5,199.5C 311.5,204.833 311.5,210.167 311.5,215.5C 308.833,215.5 306.167,215.5 303.5,215.5C 303.5,218.167 303.5,220.833 303.5,223.5C 306.167,223.5 308.833,223.5 311.5,223.5C 311.666,228.511 311.499,233.511 311,238.5C 307.667,241.833 307.667,245.167 311,248.5C 311.497,250.81 311.663,253.143 311.5,255.5C 316.833,255.5 322.167,255.5 327.5,255.5C 327.5,258.167 327.5,260.833 327.5,263.5C 330.167,263.5 332.833,263.5 335.5,263.5C 335.5,266.167 335.5,268.833 335.5,271.5C 336.833,271.5 338.167,271.5 339.5,271.5C 339.5,274.167 339.5,276.833 339.5,279.5C 338.167,279.5 336.833,279.5 335.5,279.5C 335.5,280.833 335.5,282.167 335.5,283.5C 330.167,282.833 324.833,282.167 319.5,281.5C 319.5,283.5 319.5,285.5 319.5,287.5C 324.644,286.881 329.644,286.881 334.5,287.5C 332.429,288.809 329.929,289.475 327,289.5C 318.847,288.795 310.68,288.462 302.5,288.5C 301.737,287.732 300.737,287.232 299.5,287C 295.514,286.501 291.514,286.334 287.5,286.5C 287.5,285.5 287.5,284.5 287.5,283.5C 290.167,283.5 292.833,283.5 295.5,283.5C 295.334,277.824 295.501,272.157 296,266.5C 297,265.5 298,264.5 299,263.5C 299.667,255.5 299.667,247.5 299,239.5C 296.835,237.347 296.002,234.681 296.5,231.5C 297.5,231.5 298.5,231.5 299.5,231.5C 299.5,228.833 299.5,226.167 299.5,223.5C 298.5,223.5 297.5,223.5 296.5,223.5C 296.5,220.833 296.5,218.167 296.5,215.5C 297.5,215.5 298.5,215.5 299.5,215.5C 299.5,214.167 299.5,212.833 299.5,211.5C 298.167,211.5 296.833,211.5 295.5,211.5C 295.5,194.167 295.5,176.833 295.5,159.5C 290.474,158.993 285.474,158.326 280.5,157.5C 286.42,155.658 292.754,154.658 299.5,154.5C 306.27,155.858 312.937,156.191 319.5,155.5 Z"/></g>
<g><path style="opacity:1" fill="#e6e2de" d="M 334.5,287.5 C 340.075,287.985 345.742,287.985 351.5,287.5C 351.5,288.5 351.5,289.5 351.5,290.5C 354.059,290.198 356.393,290.532 358.5,291.5C 352.155,291.653 345.822,291.986 339.5,292.5C 339.167,292.5 338.833,292.5 338.5,292.5C 337.833,292.5 337.167,292.5 336.5,292.5C 312.339,291.502 288.006,291.169 263.5,291.5C 263.414,290.504 263.748,289.671 264.5,289C 266.473,288.505 268.473,288.338 270.5,288.5C 274.833,288.5 279.167,288.5 283.5,288.5C 289.87,289.413 296.204,289.413 302.5,288.5C 310.68,288.462 318.847,288.795 327,289.5C 329.929,289.475 332.429,288.809 334.5,287.5 Z"/></g>
<g><path style="opacity:1" fill="#1c4d6b" d="M 249.5,293.5 C 259.5,293.5 269.5,293.5 279.5,293.5C 279.5,293.833 279.5,294.167 279.5,294.5C 278.791,295.404 277.791,295.737 276.5,295.5C 276.791,318.183 276.458,340.849 275.5,363.5C 275.863,368.953 276.863,374.286 278.5,379.5C 277.507,383.442 276.84,387.442 276.5,391.5C 277.828,399.452 278.494,407.452 278.5,415.5C 277.5,415.5 276.5,415.5 275.5,415.5C 275.5,420.5 275.5,425.5 275.5,430.5C 269.31,430.177 263.31,430.51 257.5,431.5C 254.833,431.167 252.167,430.833 249.5,430.5C 249.167,429.833 248.833,429.167 248.5,428.5C 249.499,383.67 249.832,338.67 249.5,293.5 Z"/></g>
<g><path style="opacity:1" fill="#245572" d="M 252.5,295.5 C 253.5,295.5 254.5,295.5 255.5,295.5C 255.5,300.833 255.5,306.167 255.5,311.5C 256.833,311.5 258.167,311.5 259.5,311.5C 258.635,319.466 258.302,327.466 258.5,335.5C 259.5,335.5 260.5,335.5 261.5,335.5C 262.434,345.819 262.601,356.153 262,366.5C 260.989,367.337 259.822,367.67 258.5,367.5C 258.5,370.167 258.5,372.833 258.5,375.5C 259.822,375.33 260.989,375.663 262,376.5C 262.434,383.505 262.934,390.505 263.5,397.5C 262.831,406.153 262.664,414.82 263,423.5C 259.663,426.099 255.83,427.432 251.5,427.5C 252.119,383.503 252.452,339.503 252.5,295.5 Z"/></g>
<g><path style="opacity:1" fill="#05314a" d="M 279.5,294.5 C 279.5,294.167 279.5,293.833 279.5,293.5C 290.167,293.5 300.833,293.5 311.5,293.5C 316.833,293.5 322.167,293.5 327.5,293.5C 319.35,294.493 311.017,294.826 302.5,294.5C 302.623,340.54 302.956,386.54 303.5,432.5C 295.833,432.5 288.167,432.5 280.5,432.5C 281.167,431.833 281.833,431.167 282.5,430.5C 284.5,430.5 286.5,430.5 288.5,430.5C 288.5,429.167 288.5,427.833 288.5,426.5C 290.827,426.753 292.827,426.086 294.5,424.5C 292.924,423.968 290.924,423.635 288.5,423.5C 288.906,412.821 289.573,402.154 290.5,391.5C 291.281,392.729 291.781,394.062 292,395.5C 292.497,393.19 292.663,390.857 292.5,388.5C 288.763,388.759 286.43,387.093 285.5,383.5C 286.5,384.167 287.5,384.833 288.5,385.5C 288.5,386.167 288.833,386.5 289.5,386.5C 294.386,388.558 297.719,387.058 299.5,382C 299.472,380.93 299.139,380.097 298.5,379.5C 298.672,378.508 298.338,377.842 297.5,377.5C 297.047,376.542 296.381,375.708 295.5,375C 292.961,374.204 290.628,374.371 288.5,375.5C 288.167,375.5 287.833,375.5 287.5,375.5C 287.5,374.5 287.5,373.5 287.5,372.5C 288.552,372.649 289.552,372.483 290.5,372C 287.554,367.541 286.887,362.708 288.5,357.5C 287.975,344.13 286.975,330.796 285.5,317.5C 286.34,315.739 287.34,314.073 288.5,312.5C 289.425,311.359 290.259,311.359 291,312.5C 291.333,325.5 291.667,338.5 292,351.5C 292.5,332.503 292.667,313.503 292.5,294.5C 289.5,294.5 286.5,294.5 283.5,294.5C 282.167,294.5 280.833,294.5 279.5,294.5 Z"/></g>
<g><path style="opacity:1" fill="#01203d" d="M 298.5,295.5 C 299.5,295.5 300.5,295.5 301.5,295.5C 301.667,312.837 301.5,330.17 301,347.5C 298.919,330.247 298.086,312.914 298.5,295.5 Z"/></g>
<g><path style="opacity:1" fill="#0c3a51" d="M 327.5,293.5 C 329.5,293.5 331.5,293.5 333.5,293.5C 333.5,293.833 333.5,294.167 333.5,294.5C 331.801,294.34 330.134,294.506 328.5,295C 329.325,311.093 329.825,327.259 330,343.5C 330.333,340.833 330.667,338.167 331,335.5C 331.211,341.218 331.711,346.885 332.5,352.5C 331.176,375.481 331.176,398.481 332.5,421.5C 331.976,423.383 331.309,425.216 330.5,427C 331.272,428.221 332.272,429.221 333.5,430C 331.942,430.21 330.609,430.71 329.5,431.5C 325.958,431.187 322.625,431.521 319.5,432.5C 314.167,432.5 308.833,432.5 303.5,432.5C 302.956,386.54 302.623,340.54 302.5,294.5C 311.017,294.826 319.35,294.493 327.5,293.5 Z"/></g>
<g><path style="opacity:1" fill="#063a55" d="M 283.5,294.5 C 286.5,294.5 289.5,294.5 292.5,294.5C 292.667,313.503 292.5,332.503 292,351.5C 291.667,338.5 291.333,325.5 291,312.5C 290.259,311.359 289.425,311.359 288.5,312.5C 287.34,314.073 286.34,315.739 285.5,317.5C 286.975,330.796 287.975,344.13 288.5,357.5C 286.887,362.708 287.554,367.541 290.5,372C 289.552,372.483 288.552,372.649 287.5,372.5C 287.5,373.5 287.5,374.5 287.5,375.5C 285.774,377.82 285.107,380.487 285.5,383.5C 286.43,387.093 288.763,388.759 292.5,388.5C 292.663,390.857 292.497,393.19 292,395.5C 291.781,394.062 291.281,392.729 290.5,391.5C 289.573,402.154 288.906,412.821 288.5,423.5C 290.924,423.635 292.924,423.968 294.5,424.5C 292.827,426.086 290.827,426.753 288.5,426.5C 288.5,427.833 288.5,429.167 288.5,430.5C 286.5,430.5 284.5,430.5 282.5,430.5C 282.67,429.178 282.337,428.011 281.5,427C 282.428,426.612 283.095,425.945 283.5,425C 282.764,415.186 282.098,405.353 281.5,395.5C 284.224,388.629 284.558,381.796 282.5,375C 283.167,374 283.833,373 284.5,372C 283.422,371.326 282.755,370.326 282.5,369C 282.887,367.177 283.221,365.343 283.5,363.5C 281.977,350.22 281.31,336.886 281.5,323.5C 281.526,313.605 282.192,303.938 283.5,294.5 Z"/></g>
<g><path style="opacity:1" fill="#305567" d="M 333.5,293.5 C 335.379,293.393 335.712,293.893 334.5,295C 335.458,331.436 336.458,367.936 337.5,404.5C 337.486,413.242 337.153,421.909 336.5,430.5C 336.167,430.5 335.833,430.5 335.5,430.5C 333.768,385.2 333.102,339.867 333.5,294.5C 333.5,294.167 333.5,293.833 333.5,293.5 Z"/></g>
<g><path style="opacity:1" fill="#708892" d="M 338.5,292.5 C 338.833,292.5 339.167,292.5 339.5,292.5C 339.599,335.338 340.266,378.005 341.5,420.5C 341.5,422.833 341.5,425.167 341.5,427.5C 340.833,427.5 340.167,427.5 339.5,427.5C 338.931,382.502 338.598,337.502 338.5,292.5 Z"/></g>
<g><path style="opacity:1" fill="#2f5c79" d="M 247.5,293.5 C 248.167,293.5 248.833,293.5 249.5,293.5C 249.832,338.67 249.499,383.67 248.5,428.5C 248.828,383.428 248.494,338.428 247.5,293.5 Z"/></g>
<g><path style="opacity:1" fill="#144664" d="M 279.5,294.5 C 280.833,294.5 282.167,294.5 283.5,294.5C 282.192,303.938 281.526,313.605 281.5,323.5C 281.31,336.886 281.977,350.22 283.5,363.5C 283.221,365.343 282.887,367.177 282.5,369C 282.755,370.326 283.422,371.326 284.5,372C 283.833,373 283.167,374 282.5,375C 284.558,381.796 284.224,388.629 281.5,395.5C 282.098,405.353 282.764,415.186 283.5,425C 283.095,425.945 282.428,426.612 281.5,427C 282.337,428.011 282.67,429.178 282.5,430.5C 281.833,431.167 281.167,431.833 280.5,432.5C 272.799,432.691 265.132,432.358 257.5,431.5C 263.31,430.51 269.31,430.177 275.5,430.5C 275.5,425.5 275.5,420.5 275.5,415.5C 276.5,415.5 277.5,415.5 278.5,415.5C 278.494,407.452 277.828,399.452 276.5,391.5C 276.84,387.442 277.507,383.442 278.5,379.5C 276.863,374.286 275.863,368.953 275.5,363.5C 276.458,340.849 276.791,318.183 276.5,295.5C 277.791,295.737 278.791,295.404 279.5,294.5 Z"/></g>
<g><path style="opacity:1" fill="#04344a" d="M 318.5,295.5 C 319.822,295.33 320.989,295.663 322,296.5C 322.333,298.833 322.667,301.167 323,303.5C 323.894,330.236 325.06,356.902 326.5,383.5C 325.5,383.5 324.5,383.5 323.5,383.5C 322.986,388.223 322.986,392.889 323.5,397.5C 321.974,400.654 321.307,403.987 321.5,407.5C 320.167,407.5 318.833,407.5 317.5,407.5C 317.085,402.66 317.752,397.993 319.5,393.5C 318.154,390.823 318.487,388.323 320.5,386C 319.708,355.846 319.042,325.68 318.5,295.5 Z"/></g>
<g><path style="opacity:1" fill="#dccd9c" d="M 288.5,375.5 C 290.628,374.371 292.961,374.204 295.5,375C 296.381,375.708 297.047,376.542 297.5,377.5C 295.473,377.338 293.473,377.505 291.5,378C 293.527,379.396 293.86,381.062 292.5,383C 294.058,383.21 295.391,383.71 296.5,384.5C 294.562,386.163 292.228,386.829 289.5,386.5C 288.833,386.5 288.5,386.167 288.5,385.5C 288.933,382.184 288.933,378.851 288.5,375.5 Z"/></g>
<g><path style="opacity:1" fill="#d9dfcf" d="M 287.5,375.5 C 287.833,375.5 288.167,375.5 288.5,375.5C 288.933,378.851 288.933,382.184 288.5,385.5C 287.5,384.833 286.5,384.167 285.5,383.5C 285.107,380.487 285.774,377.82 287.5,375.5 Z"/></g>
<g><path style="opacity:1" fill="#998351" d="M 297.5,377.5 C 298.338,377.842 298.672,378.508 298.5,379.5C 298.88,381.698 298.213,383.365 296.5,384.5C 295.391,383.71 294.058,383.21 292.5,383C 293.86,381.062 293.527,379.396 291.5,378C 293.473,377.505 295.473,377.338 297.5,377.5 Z"/></g>
<g><path style="opacity:1" fill="#2e3020" d="M 298.5,379.5 C 299.139,380.097 299.472,380.93 299.5,382C 297.719,387.058 294.386,388.558 289.5,386.5C 292.228,386.829 294.562,386.163 296.5,384.5C 298.213,383.365 298.88,381.698 298.5,379.5 Z"/></g>
<g><path style="opacity:1" fill="#21475c" d="M 333.5,294.5 C 333.102,339.867 333.768,385.2 335.5,430.5C 333.621,431.341 331.621,431.675 329.5,431.5C 330.609,430.71 331.942,430.21 333.5,430C 332.272,429.221 331.272,428.221 330.5,427C 331.309,425.216 331.976,423.383 332.5,421.5C 331.176,398.481 331.176,375.481 332.5,352.5C 331.711,346.885 331.211,341.218 331,335.5C 330.667,338.167 330.333,340.833 330,343.5C 329.825,327.259 329.325,311.093 328.5,295C 330.134,294.506 331.801,294.34 333.5,294.5 Z"/></g>
<g><path style="opacity:1" fill="#4c6d81" d="M 247.5,293.5 C 248.494,338.428 248.828,383.428 248.5,428.5C 248.833,429.167 249.167,429.833 249.5,430.5C 248.391,430.443 247.391,430.11 246.5,429.5C 245.523,426.713 245.19,423.713 245.5,420.5C 245.85,377.999 246.517,335.665 247.5,293.5 Z"/></g>
<g><path style="opacity:1" fill="#4b6b7a" d="M 311.5,293.5 C 319.65,292.507 327.983,292.174 336.5,292.5C 337.167,292.5 337.833,292.5 338.5,292.5C 338.598,337.502 338.931,382.502 339.5,427.5C 339.5,429.5 338.5,430.5 336.5,430.5C 337.153,421.909 337.486,413.242 337.5,404.5C 336.458,367.936 335.458,331.436 334.5,295C 335.712,293.893 335.379,293.393 333.5,293.5C 331.5,293.5 329.5,293.5 327.5,293.5C 322.167,293.5 316.833,293.5 311.5,293.5 Z"/></g>
<g><path style="opacity:1" fill="#b5b5ac" d="M 341.5,420.5 C 353.131,421.664 364.797,422.664 376.5,423.5C 380.75,424.016 384.75,425.349 388.5,427.5C 387.263,429.097 385.596,430.263 383.5,431C 369.499,432.233 355.499,433.4 341.5,434.5C 341.5,432.167 341.5,429.833 341.5,427.5C 341.5,425.167 341.5,422.833 341.5,420.5 Z"/></g>
<g><path style="opacity:1" fill="#c7c7bf" d="M 245.5,420.5 C 245.19,423.713 245.523,426.713 246.5,429.5C 246.621,432.105 247.621,434.105 249.5,435.5C 249.5,435.833 249.5,436.167 249.5,436.5C 246.193,435.949 242.86,435.616 239.5,435.5C 225.147,435.6 211.147,433.6 197.5,429.5C 197.953,428.542 198.619,427.708 199.5,427C 214.58,423.128 229.913,420.962 245.5,420.5 Z"/></g>
<g><path style="opacity:1" fill="#8a8f8e" d="M 246.5,429.5 C 247.391,430.11 248.391,430.443 249.5,430.5C 252.167,430.833 254.833,431.167 257.5,431.5C 265.132,432.358 272.799,432.691 280.5,432.5C 288.167,432.5 295.833,432.5 303.5,432.5C 308.833,432.5 314.167,432.5 319.5,432.5C 306.032,434.067 292.365,434.733 278.5,434.5C 268.994,434.912 259.661,433.912 250.5,431.5C 249.571,432.689 249.238,434.022 249.5,435.5C 247.621,434.105 246.621,432.105 246.5,429.5 Z"/></g>
<g><path style="opacity:1" fill="#9d9c94" d="M 278.5,434.5 C 277.737,435.268 276.737,435.768 275.5,436C 288.829,436.5 302.163,436.667 315.5,436.5C 315.5,436.833 315.5,437.167 315.5,437.5C 310.167,437.5 304.833,437.5 299.5,437.5C 284.158,437.477 268.825,437.144 253.5,436.5C 252.167,436.5 250.833,436.5 249.5,436.5C 249.5,436.167 249.5,435.833 249.5,435.5C 249.238,434.022 249.571,432.689 250.5,431.5C 259.661,433.912 268.994,434.912 278.5,434.5 Z"/></g>
<g><path style="opacity:1" fill="#8b8c7f" d="M 339.5,427.5 C 340.167,427.5 340.833,427.5 341.5,427.5C 341.5,429.833 341.5,432.167 341.5,434.5C 341.082,435.222 340.416,435.722 339.5,436C 331.507,436.5 323.507,436.666 315.5,436.5C 302.163,436.667 288.829,436.5 275.5,436C 276.737,435.768 277.737,435.268 278.5,434.5C 292.365,434.733 306.032,434.067 319.5,432.5C 322.625,431.521 325.958,431.187 329.5,431.5C 331.621,431.675 333.621,431.341 335.5,430.5C 335.833,430.5 336.167,430.5 336.5,430.5C 338.5,430.5 339.5,429.5 339.5,427.5 Z"/></g>
<g><path style="opacity:1" fill="#b8b7a4" d="M 389.5,447.5 C 389.833,450.167 390.167,452.833 390.5,455.5C 390.896,458.044 390.229,460.211 388.5,462C 385.5,463 382.5,464 379.5,465C 368.711,466.635 358.045,468.135 347.5,469.5C 342.167,469.5 336.833,469.5 331.5,469.5C 326.167,469.5 320.833,469.5 315.5,469.5C 321.653,468.672 327.987,468.172 334.5,468C 334.833,467.667 335.167,467.333 335.5,467C 334.241,466.077 332.908,465.243 331.5,464.5C 334.086,463.52 336.753,463.187 339.5,463.5C 339.5,462.167 339.5,460.833 339.5,459.5C 340.833,459.5 342.167,459.5 343.5,459.5C 343.5,458.167 343.5,456.833 343.5,455.5C 344.833,455.5 346.167,455.5 347.5,455.5C 347.5,454.167 347.5,452.833 347.5,451.5C 348.833,451.5 350.167,451.5 351.5,451.5C 351.5,448.833 351.5,446.167 351.5,443.5C 352.833,443.5 354.167,443.5 355.5,443.5C 355.5,442.167 355.5,440.833 355.5,439.5C 353.801,439.66 352.134,439.494 350.5,439C 356.36,438.791 362.026,437.958 367.5,436.5C 367.5,437.5 367.5,438.5 367.5,439.5C 370.263,439.204 372.763,438.204 375,436.5C 377.8,437.125 380.634,437.792 383.5,438.5C 383.808,439.308 384.308,439.975 385,440.5C 385.333,438.833 385.667,437.167 386,435.5C 387.503,439.532 388.67,443.532 389.5,447.5 Z"/></g>
<g><path style="opacity:1" fill="#f0f0e6" d="M 197.5,429.5 C 211.147,433.6 225.147,435.6 239.5,435.5C 240.718,436.161 242.051,436.828 243.5,437.5C 241.184,439.597 238.518,441.264 235.5,442.5C 236.689,443.429 238.022,443.762 239.5,443.5C 239.5,451.833 239.5,460.167 239.5,468.5C 244.797,469.275 250.13,469.608 255.5,469.5C 258.385,469.194 261.052,469.527 263.5,470.5C 255.493,470.666 247.493,470.5 239.5,470C 231.917,468.389 224.251,467.389 216.5,467C 210.72,465.804 205.053,464.471 199.5,463C 198.874,462.25 198.374,461.416 198,460.5C 197.5,450.172 197.334,439.839 197.5,429.5 Z"/></g>
<g><path style="opacity:1" fill="#c1bfac" d="M 388.5,427.5 C 389.491,433.979 389.824,440.646 389.5,447.5C 388.67,443.532 387.503,439.532 386,435.5C 385.667,437.167 385.333,438.833 385,440.5C 384.308,439.975 383.808,439.308 383.5,438.5C 380.634,437.792 377.8,437.125 375,436.5C 372.763,438.204 370.263,439.204 367.5,439.5C 367.5,438.5 367.5,437.5 367.5,436.5C 362.026,437.958 356.36,438.791 350.5,439C 352.134,439.494 353.801,439.66 355.5,439.5C 355.5,440.833 355.5,442.167 355.5,443.5C 354.167,443.5 352.833,443.5 351.5,443.5C 351.5,446.167 351.5,448.833 351.5,451.5C 350.167,451.5 348.833,451.5 347.5,451.5C 347.5,452.833 347.5,454.167 347.5,455.5C 346.167,455.5 344.833,455.5 343.5,455.5C 343.5,456.833 343.5,458.167 343.5,459.5C 342.167,459.5 340.833,459.5 339.5,459.5C 339.5,460.833 339.5,462.167 339.5,463.5C 336.753,463.187 334.086,463.52 331.5,464.5C 332.908,465.243 334.241,466.077 335.5,467C 335.167,467.333 334.833,467.667 334.5,468C 327.987,468.172 321.653,468.672 315.5,469.5C 310.138,469.528 304.805,469.194 299.5,468.5C 300.474,463.936 300.474,459.436 299.5,455C 303.005,451.681 304.505,447.514 304,442.5C 306.167,441 306,439.833 303.5,439C 311.5,438.667 319.5,438.333 327.5,438C 323.514,437.501 319.514,437.334 315.5,437.5C 315.5,437.167 315.5,436.833 315.5,436.5C 323.507,436.666 331.507,436.5 339.5,436C 340.416,435.722 341.082,435.222 341.5,434.5C 355.499,433.4 369.499,432.233 383.5,431C 385.596,430.263 387.263,429.097 388.5,427.5 Z"/></g>
<g><path style="opacity:1" fill="#e9e7da" d="M 239.5,435.5 C 242.86,435.616 246.193,435.949 249.5,436.5C 250.833,436.5 252.167,436.5 253.5,436.5C 253.047,437.458 252.381,438.292 251.5,439C 254.283,440.727 255.95,443.227 256.5,446.5C 257.325,447.386 258.325,447.719 259.5,447.5C 259.5,450.167 259.5,452.833 259.5,455.5C 258.167,455.5 256.833,455.5 255.5,455.5C 255.5,460.167 255.5,464.833 255.5,469.5C 250.13,469.608 244.797,469.275 239.5,468.5C 239.5,460.167 239.5,451.833 239.5,443.5C 238.022,443.762 236.689,443.429 235.5,442.5C 238.518,441.264 241.184,439.597 243.5,437.5C 242.051,436.828 240.718,436.161 239.5,435.5 Z"/></g>
<g><path style="opacity:1" fill="#f1f1f1" d="M 376.5,423.5 C 381.685,422.802 386.352,423.802 390.5,426.5C 391.074,431.388 391.407,436.222 391.5,441C 404.849,441.724 418.183,442.557 431.5,443.5C 431.5,444.833 431.5,446.167 431.5,447.5C 432.833,447.5 434.167,447.5 435.5,447.5C 435.5,446.167 435.5,444.833 435.5,443.5C 436.833,443.5 438.167,443.5 439.5,443.5C 439.5,444.833 439.5,446.167 439.5,447.5C 447.632,447.886 455.632,447.219 463.5,445.5C 463.5,446.5 463.5,447.5 463.5,448.5C 468.833,448.5 474.167,448.5 479.5,448.5C 479.5,449.5 479.5,450.5 479.5,451.5C 480.833,451.5 482.167,451.5 483.5,451.5C 483.5,452.833 483.5,454.167 483.5,455.5C 490.167,455.5 496.833,455.5 503.5,455.5C 503.5,458.167 503.5,460.833 503.5,463.5C 500.833,463.5 498.167,463.5 495.5,463.5C 495.5,462.167 495.5,460.833 495.5,459.5C 494.167,459.5 492.833,459.5 491.5,459.5C 491.762,460.978 491.429,462.311 490.5,463.5C 489.167,464.167 488.167,465.167 487.5,466.5C 479.528,467.498 471.528,467.831 463.5,467.5C 463.5,468.833 463.5,470.167 463.5,471.5C 450.167,471.5 436.833,471.5 423.5,471.5C 423.5,472.833 423.5,474.167 423.5,475.5C 406.167,475.5 388.833,475.5 371.5,475.5C 371.5,476.833 371.5,478.167 371.5,479.5C 366.167,479.5 360.833,479.5 355.5,479.5C 355.5,478.167 355.5,476.833 355.5,475.5C 351.5,475.5 347.5,475.5 343.5,475.5C 343.5,476.833 343.5,478.167 343.5,479.5C 336.833,479.5 330.167,479.5 323.5,479.5C 323.5,478.167 323.5,476.833 323.5,475.5C 321.5,475.5 319.5,475.5 317.5,475.5C 317.5,474.5 317.5,473.5 317.5,472.5C 304.863,471.579 292.197,471.246 279.5,471.5C 279.227,480.517 278.227,480.684 276.5,472C 273.305,471.819 270.305,471.319 267.5,470.5C 273.167,470.5 278.833,470.5 284.5,470.5C 300.342,470.83 316.009,470.496 331.5,469.5C 336.833,469.5 342.167,469.5 347.5,469.5C 358.419,471.303 369.419,471.47 380.5,470C 394.847,468.413 409.18,466.246 423.5,463.5C 423.5,462.167 423.5,460.833 423.5,459.5C 422.167,459.5 420.833,459.5 419.5,459.5C 419.5,458.167 419.5,456.833 419.5,455.5C 410.347,452.88 401.014,450.88 391.5,449.5C 391.795,451.735 391.461,453.735 390.5,455.5C 390.167,452.833 389.833,450.167 389.5,447.5C 389.824,440.646 389.491,433.979 388.5,427.5C 384.75,425.349 380.75,424.016 376.5,423.5 Z"/></g>
<g><path style="opacity:1" fill="#cdcab9" d="M 299.5,437.5 C 304.833,437.5 310.167,437.5 315.5,437.5C 319.514,437.334 323.514,437.501 327.5,438C 319.5,438.333 311.5,438.667 303.5,439C 306,439.833 306.167,441 304,442.5C 304.505,447.514 303.005,451.681 299.5,455C 300.474,459.436 300.474,463.936 299.5,468.5C 304.805,469.194 310.138,469.528 315.5,469.5C 320.833,469.5 326.167,469.5 331.5,469.5C 316.009,470.496 300.342,470.83 284.5,470.5C 284.5,470.167 284.5,469.833 284.5,469.5C 285.488,463.523 286.488,457.523 287.5,451.5C 286.623,447.079 286.623,442.746 287.5,438.5C 291.702,438.817 295.702,438.483 299.5,437.5 Z"/></g>
<g><path style="opacity:1" fill="#e1dfd0" d="M 253.5,436.5 C 268.825,437.144 284.158,437.477 299.5,437.5C 295.702,438.483 291.702,438.817 287.5,438.5C 280.423,438.112 275.423,438.445 272.5,439.5C 272.257,445.184 271.757,450.851 271,456.5C 268.457,457.876 268.291,459.043 270.5,460C 269.5,460.5 268.5,461 267.5,461.5C 266.52,464.086 266.187,466.753 266.5,469.5C 272.5,469.5 278.5,469.5 284.5,469.5C 284.5,469.833 284.5,470.167 284.5,470.5C 278.833,470.5 273.167,470.5 267.5,470.5C 266.167,470.5 264.833,470.5 263.5,470.5C 261.052,469.527 258.385,469.194 255.5,469.5C 255.5,464.833 255.5,460.167 255.5,455.5C 256.833,455.5 258.167,455.5 259.5,455.5C 259.5,452.833 259.5,450.167 259.5,447.5C 258.325,447.719 257.325,447.386 256.5,446.5C 255.95,443.227 254.283,440.727 251.5,439C 252.381,438.292 253.047,437.458 253.5,436.5 Z"/></g>
<g><path style="opacity:1" fill="#d6d4c4" d="M 287.5,438.5 C 286.623,442.746 286.623,447.079 287.5,451.5C 286.488,457.523 285.488,463.523 284.5,469.5C 278.5,469.5 272.5,469.5 266.5,469.5C 266.187,466.753 266.52,464.086 267.5,461.5C 268.5,461 269.5,460.5 270.5,460C 268.291,459.043 268.457,457.876 271,456.5C 271.757,450.851 272.257,445.184 272.5,439.5C 275.423,438.445 280.423,438.112 287.5,438.5 Z"/></g>
<g><path style="opacity:1" fill="#e7e7e6" d="M 347.5,469.5 C 358.045,468.135 368.711,466.635 379.5,465C 382.5,464 385.5,463 388.5,462C 390.229,460.211 390.896,458.044 390.5,455.5C 391.461,453.735 391.795,451.735 391.5,449.5C 401.014,450.88 410.347,452.88 419.5,455.5C 419.5,456.833 419.5,458.167 419.5,459.5C 420.833,459.5 422.167,459.5 423.5,459.5C 423.5,460.833 423.5,462.167 423.5,463.5C 409.18,466.246 394.847,468.413 380.5,470C 369.419,471.47 358.419,471.303 347.5,469.5 Z"/></g>
</svg>
